<svg width="8" height="8" viewBox="0 0 8 8" fill="none" xmlns="http://www.w3.org/2000/svg">
<path d="M6.05373 6.08934C5.95642 6.08934 5.8631 6.04971 5.79429 5.97916C5.72549 5.90861 5.68683 5.81293 5.68683 5.71316C5.68683 5.6134 5.72549 5.51771 5.79429 5.44717C5.8631 5.37662 5.95642 5.33699 6.05373 5.33699C6.14782 5.33699 6.23806 5.29867 6.30459 5.23045C6.37112 5.16224 6.4085 5.06972 6.4085 4.97325V1.71306C6.4085 1.61659 6.37112 1.52407 6.30459 1.45586C6.23806 1.38764 6.14782 1.34932 6.05373 1.34932H2.87391C2.77982 1.34932 2.68959 1.38764 2.62305 1.45586C2.55652 1.52407 2.51914 1.61659 2.51914 1.71306C2.51914 1.81283 2.48049 1.90851 2.41168 1.97905C2.34287 2.0496 2.24955 2.08923 2.15224 2.08923C2.05493 2.08923 1.96161 2.0496 1.8928 1.97905C1.82399 1.90851 1.78534 1.81283 1.78534 1.71306C1.78598 1.41726 1.90087 1.13376 2.10488 0.92459C2.30889 0.715425 2.5854 0.597627 2.87391 0.59697H6.05373C6.34224 0.597627 6.61875 0.715425 6.82276 0.92459C7.02677 1.13376 7.14166 1.41726 7.14231 1.71306V4.97325C7.14166 5.26905 7.02677 5.55255 6.82276 5.76172C6.61875 5.97088 6.34224 6.08868 6.05373 6.08934V6.08934Z" fill="#6B7083"/>
<path d="M4.20423 7.92012H1.15205C1.00067 7.92031 0.850746 7.88996 0.710858 7.8308C0.570969 7.77163 0.443865 7.68482 0.336827 7.57533C0.229789 7.46584 0.144919 7.33583 0.087079 7.19273C0.0292391 7.04964 -0.000434554 6.89628 -0.000242494 6.74144V3.60693C-0.000498602 3.45204 0.0291278 3.29863 0.086939 3.15548C0.14475 3.01233 0.22961 2.88226 0.336654 2.77271C0.443699 2.66317 0.570824 2.57631 0.710745 2.51712C0.850666 2.45792 1.00063 2.42755 1.15205 2.42775H4.20423C4.3556 2.42755 4.50553 2.45791 4.64542 2.51707C4.7853 2.57624 4.91241 2.66305 5.01945 2.77254C5.12648 2.88203 5.21135 3.01204 5.26919 3.15514C5.32703 3.29823 5.35671 3.45159 5.35652 3.60643V6.74094C5.36868 7.39322 4.8419 7.92012 4.20423 7.92012ZM1.15205 3.18003C1.09718 3.17957 1.04277 3.19028 0.991991 3.21155C0.941212 3.23281 0.895078 3.2642 0.85628 3.30389C0.817481 3.34357 0.786793 3.39076 0.766005 3.44271C0.745218 3.49465 0.734745 3.5503 0.735199 3.60643V6.74094C0.734745 6.79707 0.745218 6.85272 0.766005 6.90466C0.786793 6.95661 0.817481 7.0038 0.85628 7.04348C0.895078 7.08317 0.941212 7.11456 0.991991 7.13582C1.04277 7.15709 1.09718 7.1678 1.15205 7.16734H4.20423C4.25909 7.1678 4.3135 7.15709 4.36428 7.13582C4.41506 7.11456 4.46119 7.08317 4.49999 7.04348C4.53879 7.0038 4.56948 6.95661 4.59027 6.90466C4.61106 6.85272 4.62153 6.79707 4.62107 6.74094V3.60643C4.62153 3.5503 4.61106 3.49465 4.59027 3.44271C4.56948 3.39076 4.53879 3.34357 4.49999 3.30389C4.46119 3.2642 4.41506 3.23281 4.36428 3.21155C4.3135 3.19028 4.25909 3.17957 4.20423 3.18003H1.15205Z" fill="#6B7083"/>
</svg>
