<svg width="168" height="37" viewBox="0 0 168 37" fill="none" xmlns="http://www.w3.org/2000/svg">
<path d="M29.2548 15.58C30.3802 15.0479 31.3586 14.2516 32.106 13.2599C32.8533 12.2682 33.3471 11.1107 33.545 9.88707C33.7428 8.66342 33.6387 7.41029 33.2416 6.23553C32.8446 5.06077 32.1664 3.99959 31.2656 3.14332C30.3647 2.28705 29.2682 1.66136 28.0703 1.32009C26.8724 0.978817 25.609 0.932199 24.389 1.18425C23.169 1.43629 22.0288 1.97946 21.0666 2.76698C20.1045 3.5545 19.3491 4.56279 18.8656 5.70505C18.1117 7.43716 16.746 8.83462 15.0267 9.63338C13.3334 10.443 11.407 10.6319 9.58742 10.1667C7.75708 9.69364 5.81536 9.91278 4.13812 10.7817C2.93288 11.4131 1.91629 12.3493 1.19082 13.496C0.465346 14.6428 0.0566407 15.9595 0.00590028 17.3134C-0.0372375 18.3974 0.156571 19.4778 0.573954 20.4801C1.142 21.8508 2.0987 23.0276 3.32744 23.867C4.55618 24.7064 6.00389 25.1722 7.49411 25.2075C8.98433 25.2428 10.4527 24.8462 11.7203 24.066C12.9878 23.2858 13.9998 22.1557 14.6329 20.8134C15.4098 19.0995 16.7608 17.7069 18.4551 16.8734L18.9042 16.6667C20.5804 15.8938 22.4702 15.7075 24.2663 16.1384C25.945 16.5157 27.7025 16.319 29.2548 15.58Z" fill="url(#paint0_linear_37_54)"/>
<path d="M18.8589 5.70505C18.1049 7.43715 16.7393 8.83462 15.0199 9.63338C13.3286 10.4414 11.4049 10.6303 9.58737 10.1667C7.75703 9.69364 5.81532 9.91278 4.13808 10.7817C2.93284 11.4131 1.91624 12.3493 1.19077 13.496C0.465305 14.6428 0.0565998 15.9595 0.00585938 17.3134C0.00585937 17.5234 0.00585938 17.7334 0.00585938 17.9434C0.112764 17.0791 0.370196 16.2398 0.766616 15.4634C1.43964 14.1402 2.48519 13.0403 3.77581 12.2979C5.06642 11.5555 6.54632 11.2026 8.03508 11.2823C9.52383 11.362 10.9571 11.8708 12.1602 12.7467C13.3632 13.6225 14.2841 14.8276 14.8105 16.215C15.1308 17.067 15.5831 17.8638 16.151 18.5767C16.8041 17.8751 17.584 17.3018 18.45 16.8867L18.9041 16.6667C20.5804 15.8937 22.4702 15.7075 24.2663 16.1384C25.7089 16.4612 27.2145 16.3633 28.6025 15.8562C29.9905 15.3492 31.202 14.4547 32.0915 13.2799C32.9811 12.1051 33.5111 10.7 33.6178 9.23318C33.7246 7.76631 33.4035 6.29997 32.6933 5.01005C31.755 3.32715 30.2171 2.05469 28.3826 1.44329C26.5481 0.831889 24.55 0.925866 22.7816 1.70671C21.0114 2.49624 19.6091 3.92555 18.8589 5.70505Z" fill="url(#paint1_linear_37_54)"/>
<path d="M11.4775 12.2951C10.5721 11.775 9.56971 11.4439 8.53141 11.3222C7.49312 11.2004 6.44076 11.2904 5.43864 11.5868C4.43651 11.8832 3.50565 12.3797 2.70293 13.0459C1.90021 13.7121 1.24247 14.5341 0.769912 15.4617C0.373492 16.2382 0.11606 17.0774 0.00915527 17.9417C0.0465709 18.8158 0.237696 19.6766 0.573858 20.4851C1.14191 21.8558 2.0986 23.0326 3.32734 23.872C4.55608 24.7114 6.00379 25.1772 7.49401 25.2125C8.98423 25.2478 10.4526 24.8512 11.7202 24.071C12.9877 23.2908 13.9997 22.1607 14.6328 20.8184C15.0192 19.9938 15.5332 19.2346 16.156 18.5684C15.5881 17.8555 15.1358 17.0586 14.8154 16.2067C14.1927 14.5572 13.0126 13.1744 11.4775 12.2951Z" fill="url(#paint2_linear_37_54)"/>
<path opacity="0.5" d="M18.7366 8.1267C18.5954 10.0348 19.183 11.9256 20.3821 13.4217C21.513 14.8756 22.0831 16.6842 21.989 18.52C21.9306 20.4065 21.1809 22.2067 19.881 23.5817C18.536 24.9678 17.7711 26.8106 17.7412 28.7367C17.6839 30.7647 18.4389 32.7323 19.8401 34.2067C21.2414 35.681 23.1741 36.5413 25.213 36.5984C27.252 36.6554 29.2303 35.9044 30.7126 34.5107C32.1949 33.117 33.0599 31.1947 33.1172 29.1667C33.1865 27.4537 32.6722 25.7676 31.6577 24.3817C30.5506 22.9129 29.9749 21.1151 30.0239 19.28L30.0423 18.78C30.1422 16.903 30.8931 15.1184 32.1671 13.73C33.1553 12.62 33.7975 11.2481 34.0155 9.78143C34.2335 8.31474 34.0178 6.81667 33.3947 5.46979C32.7716 4.12291 31.7681 2.98539 30.5063 2.19589C29.2446 1.40639 27.7793 0.998999 26.2888 1.02337C24.3682 1.06402 22.5313 1.81366 21.1355 3.12651C19.7397 4.43937 18.8846 6.22162 18.7366 8.1267Z" fill="url(#paint3_linear_37_54)"/>
<path d="M11.6485 25.8151C11.2383 26.0119 10.8144 26.179 10.38 26.3151C11.7669 26.329 13.126 26.703 14.3229 27.4001C15.9742 28.3303 17.2259 29.8296 17.8418 31.6151C18.4481 33.4446 19.7304 34.9768 21.4294 35.9017C23.2071 36.8976 25.3097 37.1503 27.2747 36.6043C29.2397 36.0582 30.9061 34.7582 31.9074 32.9901C32.9087 31.2219 33.1628 29.1306 32.6138 27.1762C32.0648 25.2218 30.7577 23.5643 28.98 22.5684C27.4889 21.7083 25.7492 21.3747 24.0435 21.6217C22.2184 21.9123 20.3481 21.5804 18.7366 20.6801L18.3093 20.4351C17.9105 20.2051 17.066 19.9751 15.9885 21.4551C14.7569 23.1667 13.5554 24.9067 11.6485 25.8151Z" fill="url(#paint4_linear_37_54)"/>
<path d="M51.7227 26L50.791 22.9414H46.1064L45.1748 26H42.2393L46.7744 13.0977H50.1055L54.6582 26H51.7227ZM50.1406 20.6562L49.209 17.668C49.1504 17.4688 49.0713 17.2139 48.9717 16.9033C48.8779 16.5869 48.7812 16.2676 48.6816 15.9453C48.5879 15.6172 48.5117 15.333 48.4531 15.0928C48.3945 15.333 48.3125 15.6318 48.207 15.9893C48.1074 16.3408 48.0107 16.6748 47.917 16.9912C47.8232 17.3076 47.7559 17.5332 47.7148 17.668L46.792 20.6562H50.1406ZM61.5576 15.9893C61.6924 15.9893 61.8477 15.998 62.0234 16.0156C62.2051 16.0273 62.3516 16.0449 62.4629 16.0684L62.2607 18.582C62.1729 18.5527 62.0469 18.5322 61.8828 18.5205C61.7246 18.5029 61.5869 18.4941 61.4697 18.4941C61.124 18.4941 60.7871 18.5381 60.459 18.626C60.1367 18.7139 59.8467 18.8574 59.5889 19.0566C59.3311 19.25 59.126 19.5078 58.9736 19.8301C58.8271 20.1465 58.7539 20.5361 58.7539 20.999V26H56.0732V16.1738H58.1035L58.499 17.8262H58.6309C58.8242 17.4922 59.0645 17.1875 59.3516 16.9121C59.6445 16.6309 59.9756 16.4082 60.3447 16.2441C60.7197 16.0742 61.124 15.9893 61.5576 15.9893ZM68.2373 26.1758C67.2646 26.1758 66.4355 26 65.75 25.6484C65.0645 25.291 64.543 24.7402 64.1855 23.9961C63.8281 23.252 63.6494 22.2998 63.6494 21.1396C63.6494 19.9385 63.8516 18.96 64.2559 18.2041C64.666 17.4424 65.2314 16.8828 65.9521 16.5254C66.6787 16.168 67.5195 15.9893 68.4746 15.9893C69.1543 15.9893 69.7402 16.0566 70.2324 16.1914C70.7305 16.3203 71.1641 16.4756 71.5332 16.6572L70.7422 18.7314C70.3203 18.5615 69.9277 18.4238 69.5645 18.3184C69.2012 18.207 68.8379 18.1514 68.4746 18.1514C68.0059 18.1514 67.6162 18.2627 67.3057 18.4854C66.9951 18.7021 66.7637 19.0303 66.6113 19.4697C66.459 19.9092 66.3828 20.46 66.3828 21.1221C66.3828 21.7725 66.4648 22.3115 66.6289 22.7393C66.793 23.167 67.0303 23.4863 67.3408 23.6973C67.6514 23.9023 68.0293 24.0049 68.4746 24.0049C69.0312 24.0049 69.5264 23.9316 69.96 23.7852C70.3936 23.6328 70.8154 23.4219 71.2256 23.1523V25.4463C70.8154 25.7041 70.3848 25.8887 69.9336 26C69.4883 26.1172 68.9229 26.1758 68.2373 26.1758ZM81.0781 26H78.3975V13.1504H85.7627V15.3828H81.0781V18.6963H85.4375V20.9199H81.0781V26ZM90.7461 16.1738V26H88.0654V16.1738H90.7461ZM89.4102 12.3242C89.8086 12.3242 90.1514 12.418 90.4385 12.6055C90.7256 12.7871 90.8691 13.1299 90.8691 13.6338C90.8691 14.1318 90.7256 14.4775 90.4385 14.6709C90.1514 14.8584 89.8086 14.9521 89.4102 14.9521C89.0059 14.9521 88.6602 14.8584 88.373 14.6709C88.0918 14.4775 87.9512 14.1318 87.9512 13.6338C87.9512 13.1299 88.0918 12.7871 88.373 12.6055C88.6602 12.418 89.0059 12.3242 89.4102 12.3242ZM99.1484 15.9893C100.197 15.9893 101.041 16.2764 101.68 16.8506C102.318 17.4189 102.638 18.333 102.638 19.5928V26H99.957V20.2607C99.957 19.5576 99.8281 19.0273 99.5703 18.6699C99.3184 18.3125 98.9199 18.1338 98.375 18.1338C97.5547 18.1338 96.9951 18.4121 96.6963 18.9688C96.3975 19.5254 96.248 20.3281 96.248 21.377V26H93.5674V16.1738H95.6152L95.9756 17.4307H96.125C96.3359 17.0908 96.5967 16.8154 96.9072 16.6045C97.2236 16.3936 97.5723 16.2383 97.9531 16.1387C98.3398 16.0391 98.7383 15.9893 99.1484 15.9893ZM109.423 15.9717C110.741 15.9717 111.752 16.2588 112.455 16.833C113.158 17.4072 113.51 18.2803 113.51 19.4521V26H111.638L111.119 24.6641H111.049C110.768 25.0156 110.48 25.3027 110.188 25.5254C109.895 25.748 109.558 25.9121 109.177 26.0176C108.796 26.123 108.333 26.1758 107.788 26.1758C107.208 26.1758 106.687 26.0645 106.224 25.8418C105.767 25.6191 105.406 25.2793 105.143 24.8223C104.879 24.3594 104.747 23.7734 104.747 23.0645C104.747 22.0215 105.113 21.2539 105.846 20.7617C106.578 20.2637 107.677 19.9883 109.142 19.9355L110.847 19.8828V19.4521C110.847 18.9365 110.712 18.5586 110.442 18.3184C110.173 18.0781 109.798 17.958 109.317 17.958C108.843 17.958 108.377 18.0254 107.92 18.1602C107.463 18.2949 107.006 18.4648 106.549 18.6699L105.661 16.8594C106.183 16.584 106.766 16.3672 107.41 16.209C108.061 16.0508 108.731 15.9717 109.423 15.9717ZM110.847 21.4473L109.81 21.4824C108.942 21.5059 108.339 21.6611 107.999 21.9482C107.665 22.2354 107.498 22.6133 107.498 23.082C107.498 23.4922 107.618 23.7852 107.858 23.9609C108.099 24.1309 108.412 24.2158 108.799 24.2158C109.373 24.2158 109.856 24.0459 110.249 23.7061C110.647 23.3662 110.847 22.8828 110.847 22.2559V21.4473ZM121.859 15.9893C122.908 15.9893 123.752 16.2764 124.391 16.8506C125.029 17.4189 125.349 18.333 125.349 19.5928V26H122.668V20.2607C122.668 19.5576 122.539 19.0273 122.281 18.6699C122.029 18.3125 121.631 18.1338 121.086 18.1338C120.266 18.1338 119.706 18.4121 119.407 18.9688C119.108 19.5254 118.959 20.3281 118.959 21.377V26H116.278V16.1738H118.326L118.687 17.4307H118.836C119.047 17.0908 119.308 16.8154 119.618 16.6045C119.935 16.3936 120.283 16.2383 120.664 16.1387C121.051 16.0391 121.449 15.9893 121.859 15.9893ZM132.099 26.1758C131.126 26.1758 130.297 26 129.611 25.6484C128.926 25.291 128.404 24.7402 128.047 23.9961C127.689 23.252 127.511 22.2998 127.511 21.1396C127.511 19.9385 127.713 18.96 128.117 18.2041C128.527 17.4424 129.093 16.8828 129.813 16.5254C130.54 16.168 131.381 15.9893 132.336 15.9893C133.016 15.9893 133.602 16.0566 134.094 16.1914C134.592 16.3203 135.025 16.4756 135.395 16.6572L134.604 18.7314C134.182 18.5615 133.789 18.4238 133.426 18.3184C133.062 18.207 132.699 18.1514 132.336 18.1514C131.867 18.1514 131.478 18.2627 131.167 18.4854C130.856 18.7021 130.625 19.0303 130.473 19.4697C130.32 19.9092 130.244 20.46 130.244 21.1221C130.244 21.7725 130.326 22.3115 130.49 22.7393C130.654 23.167 130.892 23.4863 131.202 23.6973C131.513 23.9023 131.891 24.0049 132.336 24.0049C132.893 24.0049 133.388 23.9316 133.821 23.7852C134.255 23.6328 134.677 23.4219 135.087 23.1523V25.4463C134.677 25.7041 134.246 25.8887 133.795 26C133.35 26.1172 132.784 26.1758 132.099 26.1758ZM141.424 15.9893C142.332 15.9893 143.114 16.165 143.771 16.5166C144.427 16.8623 144.934 17.3662 145.291 18.0283C145.648 18.6904 145.827 19.499 145.827 20.4541V21.7549H139.49C139.52 22.5107 139.745 23.1055 140.167 23.5391C140.595 23.9668 141.187 24.1807 141.942 24.1807C142.569 24.1807 143.144 24.1162 143.665 23.9873C144.187 23.8584 144.723 23.665 145.273 23.4072V25.4814C144.787 25.7217 144.277 25.8975 143.744 26.0088C143.217 26.1201 142.575 26.1758 141.819 26.1758C140.835 26.1758 139.962 25.9941 139.2 25.6309C138.444 25.2676 137.85 24.7139 137.416 23.9697C136.988 23.2256 136.774 22.2881 136.774 21.1572C136.774 20.0088 136.968 19.0537 137.354 18.292C137.747 17.5244 138.292 16.9502 138.989 16.5693C139.687 16.1826 140.498 15.9893 141.424 15.9893ZM141.441 17.8965C140.92 17.8965 140.486 18.0635 140.141 18.3975C139.801 18.7314 139.604 19.2559 139.552 19.9707H143.313C143.308 19.5723 143.234 19.2178 143.094 18.9072C142.959 18.5967 142.754 18.3506 142.479 18.1689C142.209 17.9873 141.863 17.8965 141.441 17.8965Z" fill="#F9F9F9"/>
<path d="M138.239 7C138.239 3.68629 140.926 1 144.239 1H161.739C164.777 1 167.239 3.46243 167.239 6.5C167.239 9.53757 164.777 12 161.739 12H138.239V7Z" fill="#FFB142"/>
<path d="M143.169 3.02H146.039C146.613 3.02 147.066 3.18333 147.399 3.51C147.733 3.83667 147.899 4.27333 147.899 4.82C147.899 5.28667 147.783 5.64 147.549 5.88C147.323 6.11333 147.063 6.25333 146.769 6.3V6.36C147.089 6.38 147.396 6.52667 147.689 6.8C147.989 7.06667 148.139 7.46 148.139 7.98C148.139 8.55333 147.966 9.03333 147.619 9.42C147.279 9.80667 146.853 10 146.339 10H143.169V3.02ZM144.009 6.04H145.939C146.273 6.04 146.533 5.95667 146.719 5.79C146.906 5.61667 146.999 5.37667 146.999 5.07V4.73C146.999 4.42333 146.906 4.18667 146.719 4.02C146.533 3.84667 146.273 3.76 145.939 3.76H144.009V6.04ZM144.009 9.26H146.079C146.446 9.26 146.729 9.16667 146.929 8.98C147.136 8.79333 147.239 8.52667 147.239 8.18V7.84C147.239 7.49333 147.136 7.22667 146.929 7.04C146.729 6.85333 146.446 6.76 146.079 6.76H144.009V9.26ZM151.562 10.12C150.862 10.12 150.299 9.87667 149.872 9.39C149.452 8.89667 149.242 8.24 149.242 7.42C149.242 6.6 149.452 5.94667 149.872 5.46C150.299 4.96667 150.862 4.72 151.562 4.72C152.242 4.72 152.782 4.95667 153.182 5.43C153.589 5.89667 153.792 6.5 153.792 7.24V7.62H150.082V7.86C150.082 8.31333 150.219 8.68667 150.492 8.98C150.772 9.27333 151.146 9.42 151.612 9.42C152.279 9.42 152.752 9.12333 153.032 8.53L153.602 8.94C153.436 9.3 153.172 9.58667 152.812 9.8C152.452 10.0133 152.036 10.12 151.562 10.12ZM151.562 5.39C151.129 5.39 150.772 5.53667 150.492 5.83C150.219 6.12333 150.082 6.49667 150.082 6.95V7.02H152.932V6.91C152.932 6.45667 152.806 6.09 152.552 5.81C152.306 5.53 151.976 5.39 151.562 5.39ZM156.251 10C155.984 10 155.774 9.92333 155.621 9.77C155.474 9.61 155.401 9.40333 155.401 9.15V5.54H154.551V4.84H155.031C155.197 4.84 155.314 4.80667 155.381 4.74C155.447 4.66667 155.481 4.54333 155.481 4.37V3.41H156.201V4.84H157.331V5.54H156.201V9.3H157.251V10H156.251ZM162.367 10C161.847 10 161.55 9.72 161.477 9.16H161.427C161.2 9.8 160.703 10.12 159.937 10.12C159.397 10.12 158.973 9.98 158.667 9.7C158.36 9.42 158.207 9.04 158.207 8.56C158.207 7.55333 158.94 7.05 160.407 7.05H161.427V6.54C161.427 5.78667 161.02 5.41 160.207 5.41C159.64 5.41 159.203 5.66667 158.897 6.18L158.417 5.73C158.57 5.43667 158.803 5.19667 159.117 5.01C159.43 4.81667 159.807 4.72 160.247 4.72C160.867 4.72 161.35 4.87333 161.697 5.18C162.05 5.48667 162.227 5.91333 162.227 6.46V9.3H162.817V10H162.367ZM160.067 9.44C160.46 9.44 160.783 9.35 161.037 9.17C161.297 8.99 161.427 8.76667 161.427 8.5V7.65H160.367C159.487 7.65 159.047 7.91 159.047 8.43V8.64C159.047 8.89333 159.137 9.09 159.317 9.23C159.503 9.37 159.753 9.44 160.067 9.44Z" fill="black"/>
<defs>
<linearGradient id="paint0_linear_37_54" x1="16.3764" y1="25.6091" x2="17.3434" y2="0.75437" gradientUnits="userSpaceOnUse">
<stop stop-color="#02D9F0"/>
<stop offset="1" stop-color="#0887FC"/>
</linearGradient>
<linearGradient id="paint1_linear_37_54" x1="16.6504" y1="18.6411" x2="17.3462" y2="0.754481" gradientUnits="userSpaceOnUse">
<stop stop-color="#54F2D1"/>
<stop offset="1" stop-color="#0888FC"/>
</linearGradient>
<linearGradient id="paint2_linear_37_54" x1="7.8603" y1="25.2778" x2="8.40249" y2="11.3416" gradientUnits="userSpaceOnUse">
<stop stop-color="#0AEDEA"/>
<stop offset="0.17" stop-color="#0FEDE8"/>
<stop offset="0.37" stop-color="#1DEEE3"/>
<stop offset="0.59" stop-color="#35F0DB"/>
<stop offset="0.82" stop-color="#56F2D0"/>
<stop offset="1" stop-color="#76F4C5"/>
</linearGradient>
<linearGradient id="paint3_linear_37_54" x1="25.2743" y1="36.5667" x2="26.6549" y2="1.0816" gradientUnits="userSpaceOnUse">
<stop stop-color="#80EDDB"/>
<stop offset="0.14" stop-color="#7DE8DA"/>
<stop offset="0.3" stop-color="#74DAD5"/>
<stop offset="0.47" stop-color="#66C2CE"/>
<stop offset="0.66" stop-color="#51A1C4"/>
<stop offset="0.84" stop-color="#3877B8"/>
<stop offset="1" stop-color="#1F4EAC"/>
</linearGradient>
<linearGradient id="paint4_linear_37_54" x1="21.3051" y1="36.7342" x2="21.9375" y2="20.4797" gradientUnits="userSpaceOnUse">
<stop stop-color="#08ECEB"/>
<stop offset="1" stop-color="#6EF4C8"/>
</linearGradient>
</defs>
</svg>
