<svg width="27" height="20" viewBox="0 0 27 20" fill="none" xmlns="http://www.w3.org/2000/svg">
<g id="Vector 1">
<path d="M27 9L23.8235 6.5H23.0294V20H27V9Z" fill="white"/>
<path d="M21.4412 20V8.66395L17.4706 12.1379V20H21.4412Z" fill="white"/>
<path d="M15.8824 20V13.5971L13.8971 14.902L12.7059 14.1176V20H15.8824Z" fill="white"/>
<path d="M10.3235 20V12.3089L6.75 15.5727V20H10.3235Z" fill="white"/>
<path d="M4.76471 20V17.2549L2 20H4.76471Z" fill="white"/>
<path d="M10.3235 10.5L0.397059 20H0V15.6863L10.3235 5.88235L14.2941 9.41177L22 3L19.4559 0H27L26.2059 7.05882L23.8235 4.71943L13.8971 13.3333L10.3235 10.5Z" fill="white"/>
</g>
</svg>
