<svg xmlns="http://www.w3.org/2000/svg" xmlns:xlink="http://www.w3.org/1999/xlink" width="73" height="73" viewBox="0 0 73 73">
  <defs>
    <clipPath id="clip-path">
      <rect id="矩形_1601" data-name="矩形 1601" width="39.564" height="39.564" transform="translate(0 0)" fill="#fff" stroke="#707070" stroke-width="1"/>
    </clipPath>
  </defs>
  <g id="组_12008" data-name="组 12008" transform="translate(24139 19076)">
    <rect id="矩形_1660" data-name="矩形 1660" width="73" height="73" rx="36.5" transform="translate(-24139 -19076)" fill="#2da781"/>
    <g id="蒙版组_170" data-name="蒙版组 170" transform="translate(-24122.475 -19057.387)" clip-path="url(#clip-path)">
      <path id="USDT_1_" data-name="USDT (1)" d="M34.9,7.371V0H4.728V7.371H15.855v4.816C6.812,12.594,0,14.376,0,16.515s6.812,3.921,15.855,4.328V36.3h7.925V20.839c9.01-.412,15.784-2.194,15.784-4.324S32.79,12.6,23.781,12.191V7.371H34.9Zm1.252,8.711c0,1.408-5.265,2.589-12.376,2.916l-.458.021h-.055l-.433.017h-.046c-.319.013-.643.021-.975.029H21.8l-.441.008H21.23l-.349,0h-2.2l-.345,0h-.118l-.412-.008h-.042c-.487-.013-.967-.025-1.441-.046h0L15.847,19C8.7,18.675,3.4,17.49,3.4,16.078s5.3-2.593,12.447-2.921v4.471c1.24.063,2.559.1,3.929.1,1.391,0,2.736-.038,4-.105V13.17C30.891,13.493,36.156,14.674,36.156,16.082Z" transform="translate(0 1.632)" fill="#fff"/>
    </g>
  </g>
</svg>
