<svg width="42" height="38" viewBox="0 0 42 38" fill="none" xmlns="http://www.w3.org/2000/svg">
<g id="&#228;&#186;&#164;&#230;&#152;&#147;&#230;&#152;&#147;&#230;&#181;&#129;&#230;&#176;&#180; 1" clip-path="url(#clip0_5_769)">
<g id="&#233;&#161;&#181;&#233;&#157;&#162;-1">
<g id="v">
<g id="&#228;&#186;&#164;&#230;&#152;&#147;&#230;&#152;&#147;&#230;&#181;&#129;&#230;&#176;&#180;">
<path id="&#229;&#189;&#162;&#231;&#138;&#182;" d="M22.155 37.9769C15.3198 37.9769 9.00337 34.2487 5.6647 28.2481L8.1281 26.8647C10.966 31.9718 16.3439 35.1422 22.155 35.1422C31.007 35.1422 38.2123 27.8988 38.2123 19C38.2123 10.1012 31.0116 2.85782 22.155 2.85782C13.2985 2.85782 6.09782 10.1012 6.09782 19H3.27799C3.27799 8.53638 11.7465 0.0230713 22.155 0.0230713C32.5636 0.0230713 41.0321 8.53638 41.0321 19C41.0321 29.4636 32.5636 37.9769 22.155 37.9769ZM28.097 28.3887L19.1818 20.1747V8.20982H22.0016V18.9274L30.0009 26.3023L28.097 28.3887ZM5.08268 21.4311L0.097229 16.4192L2.09141 14.4191L5.08268 17.4262L8.07396 14.4191L10.0636 16.4192L5.08268 21.4311Z" fill="white"/>
</g>
</g>
</g>
</g>
<defs>
<clipPath id="clip0_5_769">
<rect width="42" height="38" fill="white"/>
</clipPath>
</defs>
</svg>
